<svg xmlns="http://www.w3.org/2000/svg" width="31" height="30" viewBox="0 0 31 30" fill="none">
  <path fill-rule="evenodd" clip-rule="evenodd" d="M15.4353 1.82719e-07H15.5647C17.999 -1.02029e-05 19.9147 -1.8423e-05 21.4518 0.13345C23.0196 0.269594 24.3222 0.552443 25.4917 1.19538C27.0987 2.07885 28.4212 3.40133 29.3046 5.00835C29.9476 6.17784 30.2304 7.48036 30.3666 9.04823C30.5 10.5853 30.5 12.501 30.5 14.9353V15.0647C30.5 17.499 30.5 19.4147 30.3666 20.9518C30.2304 22.5196 29.9476 23.8222 29.3046 24.9917C28.4212 26.5987 27.0987 27.9212 25.4917 28.8046C24.3222 29.4476 23.0196 29.7304 21.4518 29.8666C19.9147 30 17.999 30 15.5647 30H15.4353C13.001 30 11.0853 30 9.54823 29.8666C7.98036 29.7304 6.67784 29.4476 5.50835 28.8046C3.90133 27.9212 2.57885 26.5987 1.69538 24.9917C1.05244 23.8222 0.769594 22.5196 0.63345 20.9518C0.499982 19.4147 0.49999 17.499 0.5 15.0647V14.9353C0.49999 12.501 0.499982 10.5853 0.63345 9.04823C0.769594 7.48036 1.05244 6.17784 1.69538 5.00835C2.57885 3.40133 3.90133 2.07885 5.50835 1.19538C6.67784 0.552443 7.98036 0.269594 9.54823 0.13345C11.0853 -1.8423e-05 13.001 -1.02029e-05 15.4353 1.82719e-07ZM9.78416 2.8505C8.39608 2.97103 7.5203 3.20153 6.82222 3.5853C5.66872 4.21945 4.71945 5.16872 4.0853 6.32222C3.70153 7.0203 3.47103 7.89608 3.3505 9.28416C3.22847 10.6894 3.22727 12.4869 3.22727 15C3.22727 17.5131 3.22847 19.3106 3.3505 20.7158C3.47103 22.1039 3.70153 22.9797 4.0853 23.6778C4.71945 24.8313 5.66872 25.7806 6.82222 26.4147C7.5203 26.7985 8.39608 27.029 9.78416 27.1495C11.1894 27.2715 12.9869 27.2727 15.5 27.2727C18.0131 27.2727 19.8106 27.2715 21.2158 27.1495C22.6039 27.029 23.4797 26.7985 24.1778 26.4147C25.3313 25.7806 26.2806 24.8313 26.9147 23.6778C27.2985 22.9797 27.529 22.1039 27.6495 20.7158C27.7715 19.3106 27.7727 17.5131 27.7727 15C27.7727 12.4869 27.7715 10.6894 27.6495 9.28416C27.529 7.89608 27.2985 7.0203 26.9147 6.32222C26.2806 5.16872 25.3313 4.21945 24.1778 3.5853C23.4797 3.20153 22.6039 2.97103 21.2158 2.8505C19.8106 2.72847 18.0131 2.72727 15.5 2.72727C12.9869 2.72727 11.1894 2.72847 9.78416 2.8505ZM10.3357 5.33597H10.4435C10.9934 5.33593 11.4938 5.33589 11.9098 5.37359C12.358 5.41421 12.8401 5.50708 13.3043 5.77509C13.8026 6.06276 14.2164 6.47651 14.504 6.97477C14.772 7.43898 14.8649 7.9211 14.9055 8.36934C14.9432 8.78528 14.9432 9.2857 14.9432 9.83567V9.94345C14.9432 10.4934 14.9432 10.9938 14.9055 11.4098C14.8649 11.858 14.772 12.3401 14.504 12.8043C14.2164 13.3026 13.8026 13.7164 13.3043 14.004C12.8401 14.272 12.358 14.3649 11.9098 14.4055C11.4938 14.4432 10.9934 14.4432 10.4434 14.4432H10.3357C9.7857 14.4432 9.28528 14.4432 8.86934 14.4055C8.4211 14.3649 7.93898 14.272 7.47477 14.004C6.97651 13.7164 6.56276 13.3026 6.27509 12.8043C6.00708 12.3401 5.91421 11.858 5.87359 11.4098C5.83589 10.9938 5.83593 10.4934 5.83597 9.94346V9.83566C5.83593 9.28569 5.83589 8.78527 5.87359 8.36933C5.91421 7.9211 6.00708 7.43898 6.27509 6.97477C6.56276 6.47651 6.97651 6.06276 7.47477 5.77509C7.93898 5.50708 8.4211 5.41421 8.86933 5.37359C9.28527 5.33589 9.78569 5.33593 10.3357 5.33597ZM8.8375 8.13749C8.75449 8.18561 8.68558 8.25456 8.63746 8.33756C8.63083 8.35353 8.60705 8.42439 8.58973 8.61551C8.56455 8.89333 8.56324 9.26819 8.56324 9.88956C8.56324 10.5109 8.56455 10.8858 8.58973 11.1636C8.60705 11.3547 8.63083 11.4256 8.63746 11.4416C8.68558 11.5246 8.75457 11.5935 8.83757 11.6417C8.85355 11.6483 8.92441 11.6721 9.11551 11.6894C9.39333 11.7146 9.76819 11.7159 10.3896 11.7159C11.0109 11.7159 11.3858 11.7146 11.6636 11.6894C11.8547 11.6721 11.9256 11.6483 11.9416 11.6417C12.0246 11.5935 12.0935 11.5246 12.1417 11.4416C12.1483 11.4256 12.1721 11.3547 12.1894 11.1636C12.2146 10.8858 12.2159 10.5109 12.2159 9.88956C12.2159 9.26819 12.2146 8.89333 12.1894 8.61551C12.1721 8.42442 12.1483 8.35355 12.1417 8.33757C12.0935 8.25457 12.0246 8.18558 11.9416 8.13746C11.9256 8.13083 11.8547 8.10705 11.6636 8.08973C11.3858 8.06455 11.0109 8.06324 10.3896 8.06324C9.76819 8.06324 9.39333 8.06455 9.11551 8.08973C8.92439 8.10705 8.85346 8.13086 8.8375 8.13749ZM20.5565 5.33597H20.6643C21.2143 5.33593 21.7147 5.33589 22.1307 5.37359C22.5789 5.41421 23.061 5.50708 23.5252 5.77509C24.0235 6.06276 24.4372 6.47651 24.7249 6.97477C24.9929 7.43898 25.0858 7.9211 25.1264 8.36933C25.1641 8.78528 25.1641 9.2857 25.164 9.83567V9.94345C25.1641 10.4934 25.1641 10.9938 25.1264 11.4098C25.0858 11.858 24.9929 12.3401 24.7249 12.8043C24.4372 13.3026 24.0235 13.7164 23.5252 14.004C23.061 14.272 22.5789 14.3649 22.1307 14.4055C21.7147 14.4432 21.2143 14.4432 20.6643 14.4432H20.5566C20.0066 14.4432 19.5062 14.4432 19.0902 14.4055C18.642 14.3649 18.1599 14.272 17.6957 14.004C17.1974 13.7164 16.7836 13.3026 16.496 12.8043C16.228 12.3401 16.1351 11.858 16.0945 11.4098C16.0568 10.9938 16.0568 10.4934 16.0568 9.94345V9.83567C16.0568 9.2857 16.0568 8.78528 16.0945 8.36933C16.1351 7.9211 16.228 7.43898 16.496 6.97477C16.7836 6.47651 17.1974 6.06275 17.6957 5.77509C18.1599 5.50708 18.642 5.41421 19.0902 5.37359C19.5062 5.33589 20.0066 5.33593 20.5565 5.33597ZM19.0584 8.13749C18.9754 8.18561 18.9065 8.25457 18.8583 8.33757C18.8517 8.35354 18.8279 8.42441 18.8106 8.61551C18.7854 8.89333 18.7841 9.26819 18.7841 9.88956C18.7841 10.5109 18.7854 10.8858 18.8106 11.1636C18.8279 11.3547 18.8517 11.4256 18.8583 11.4416C18.9065 11.5246 18.9754 11.5935 19.0584 11.6417C19.0744 11.6483 19.1453 11.6721 19.3364 11.6894C19.6142 11.7146 19.9891 11.7159 20.6104 11.7159C21.2318 11.7159 21.6067 11.7146 21.8845 11.6894C22.0756 11.6721 22.1465 11.6483 22.1624 11.6417C22.2454 11.5935 22.3144 11.5246 22.3625 11.4416C22.3692 11.4256 22.393 11.3547 22.4103 11.1636C22.4355 10.8858 22.4368 10.5109 22.4368 9.88956C22.4368 9.26819 22.4355 8.89333 22.4103 8.61551C22.393 8.42442 22.3692 8.35355 22.3625 8.33757C22.3144 8.25456 22.2454 8.18558 22.1624 8.13746C22.1465 8.13082 22.0756 8.10705 21.8845 8.08973C21.6067 8.06455 21.2318 8.06324 20.6104 8.06324C19.9891 8.06324 19.6142 8.06455 19.3364 8.08973C19.1453 8.10705 19.0743 8.13086 19.0584 8.13749ZM10.3357 15.5568H10.4434C10.9934 15.5568 11.4938 15.5568 11.9098 15.5945C12.358 15.6351 12.8401 15.728 13.3043 15.996C13.8026 16.2836 14.2164 16.6974 14.504 17.1957C14.772 17.6599 14.8649 18.142 14.9055 18.5902C14.9432 19.0062 14.9432 19.5066 14.9432 20.0566V20.1643C14.9432 20.7143 14.9432 21.2147 14.9055 21.6307C14.8649 22.0789 14.772 22.561 14.504 23.0252C14.2164 23.5235 13.8026 23.9372 13.3043 24.2249C12.8401 24.4929 12.358 24.5858 11.9098 24.6264C11.4938 24.6641 10.9934 24.6641 10.4434 24.664H10.3357C9.7857 24.6641 9.28528 24.6641 8.86933 24.6264C8.4211 24.5858 7.93898 24.4929 7.47477 24.2249C6.97651 23.9372 6.56276 23.5235 6.27509 23.0252C6.00708 22.561 5.91421 22.0789 5.87359 21.6307C5.83589 21.2147 5.83593 20.7143 5.83597 20.1643V20.0565C5.83593 19.5066 5.83589 19.0062 5.87359 18.5902C5.91421 18.142 6.00708 17.6599 6.27509 17.1957C6.56275 16.6974 6.97651 16.2836 7.47477 15.996C7.93898 15.728 8.4211 15.6351 8.86933 15.5945C9.28528 15.5568 9.7857 15.5568 10.3357 15.5568ZM8.8375 18.3584C8.7545 18.4065 8.68558 18.4754 8.63746 18.5584C8.63083 18.5744 8.60705 18.6453 8.58973 18.8364C8.56455 19.1142 8.56324 19.4891 8.56324 20.1104C8.56324 20.7318 8.56455 21.1067 8.58973 21.3845C8.60705 21.5756 8.63083 21.6465 8.63746 21.6624C8.68558 21.7454 8.75456 21.8144 8.83757 21.8625C8.85355 21.8692 8.92442 21.893 9.11551 21.9103C9.39333 21.9355 9.76819 21.9368 10.3896 21.9368C11.0109 21.9368 11.3858 21.9355 11.6636 21.9103C11.8547 21.893 11.9256 21.8692 11.9416 21.8625C12.0246 21.8144 12.0935 21.7454 12.1417 21.6624C12.1483 21.6465 12.1721 21.5756 12.1894 21.3845C12.2146 21.1067 12.2159 20.7318 12.2159 20.1104C12.2159 19.4891 12.2146 19.1142 12.1894 18.8364C12.1721 18.6453 12.1483 18.5744 12.1417 18.5584C12.0935 18.4754 12.0246 18.4065 11.9416 18.3583C11.9256 18.3517 11.8547 18.3279 11.6636 18.3106C11.3858 18.2854 11.0109 18.2841 10.3896 18.2841C9.76819 18.2841 9.39333 18.2854 9.11551 18.3106C8.92441 18.3279 8.85348 18.3517 8.8375 18.3584ZM20.5566 15.5568H20.6643C21.2143 15.5568 21.7147 15.5568 22.1307 15.5945C22.5789 15.6351 23.061 15.728 23.5252 15.996C24.0235 16.2836 24.4372 16.6974 24.7249 17.1957C24.9929 17.6599 25.0858 18.142 25.1264 18.5902C25.1641 19.0062 25.1641 19.5066 25.164 20.0566V20.1643C25.1641 20.7143 25.1641 21.2147 25.1264 21.6307C25.0858 22.0789 24.9929 22.561 24.7249 23.0252C24.4372 23.5235 24.0235 23.9372 23.5252 24.2249C23.061 24.4929 22.5789 24.5858 22.1307 24.6264C21.7147 24.6641 21.2143 24.6641 20.6643 24.664H20.5566C20.0066 24.6641 19.5062 24.6641 19.0902 24.6264C18.642 24.5858 18.1599 24.4929 17.6957 24.2249C17.1974 23.9372 16.7836 23.5235 16.496 23.0252C16.228 22.561 16.1351 22.0789 16.0945 21.6307C16.0568 21.2147 16.0568 20.7143 16.0568 20.1643V20.0566C16.0568 19.5066 16.0568 19.0062 16.0945 18.5902C16.1351 18.142 16.228 17.6599 16.496 17.1957C16.7836 16.6974 17.1974 16.2836 17.6957 15.996C18.1599 15.728 18.642 15.6351 19.0902 15.5945C19.5062 15.5568 20.0066 15.5568 20.5566 15.5568ZM19.0584 18.3584C18.9754 18.4065 18.9065 18.4754 18.8583 18.5584C18.8517 18.5744 18.8279 18.6453 18.8106 18.8364C18.7854 19.1142 18.7841 19.4891 18.7841 20.1104C18.7841 20.7318 18.7854 21.1067 18.8106 21.3845C18.8279 21.5756 18.8517 21.6464 18.8583 21.6624C18.9065 21.7454 18.9754 21.8144 19.0584 21.8625C19.0744 21.8692 19.1453 21.893 19.3364 21.9103C19.6142 21.9355 19.9891 21.9368 20.6104 21.9368C21.2318 21.9368 21.6067 21.9355 21.8845 21.9103C22.0756 21.893 22.1464 21.8692 22.1624 21.8625C22.2454 21.8144 22.3144 21.7454 22.3625 21.6624C22.3692 21.6464 22.393 21.5756 22.4103 21.3845C22.4355 21.1067 22.4368 20.7318 22.4368 20.1104C22.4368 19.4891 22.4355 19.1142 22.4103 18.8364C22.393 18.6453 22.3692 18.5744 22.3625 18.5584C22.3144 18.4754 22.2454 18.4065 22.1624 18.3583C22.1465 18.3517 22.0756 18.3279 21.8845 18.3106C21.6067 18.2854 21.2318 18.2841 20.6104 18.2841C19.9891 18.2841 19.6142 18.2854 19.3364 18.3106C19.1453 18.3279 19.0743 18.3517 19.0584 18.3584Z" fill="#5A5A5A"/>
</svg>