<svg xmlns="http://www.w3.org/2000/svg" width="31" height="30" viewBox="0 0 31 30" fill="none">
  <path d="M11.846 5.31555C12.9757 2.25355 13.5406 0.722546 14.3624 0.284571C15.0742 -0.0948569 15.9258 -0.0948569 16.6376 0.284571C17.4594 0.722546 18.0243 2.25355 19.154 5.31555L19.6985 6.7913C20.0251 7.67639 20.1884 8.11894 20.4699 8.45089C20.7187 8.74426 21.0323 8.97438 21.3855 9.12264C21.7851 9.2904 22.2524 9.31046 23.1869 9.35058L24.7451 9.41747C27.9782 9.55626 29.5947 9.62565 30.2611 10.2795C30.8385 10.8459 31.1016 11.6636 30.9642 12.4646C30.8056 13.3891 29.5382 14.4047 27.0034 16.4359L25.7818 17.4148C25.0491 18.002 24.6827 18.2955 24.4571 18.6684C24.2576 18.998 24.1378 19.3704 24.1073 19.7554C24.0728 20.191 24.1983 20.6459 24.4493 21.5558L24.8678 23.0729C25.7362 26.2207 26.1704 27.7946 25.7605 28.6366C25.4054 29.3661 24.7166 29.8715 23.9198 29.9871C23 30.1205 21.6519 29.2172 18.9555 27.4105L17.656 26.5398C16.8766 26.0176 16.4868 25.7565 16.0659 25.655C15.6939 25.5653 15.3061 25.5653 14.9341 25.655C14.5132 25.7565 14.1234 26.0176 13.344 26.5398L12.0445 27.4105C9.34814 29.2172 7.99996 30.1205 7.08023 29.9871C6.28344 29.8715 5.59456 29.3661 5.2395 28.6366C4.82964 27.7946 5.26382 26.2207 6.13216 23.0729L6.55067 21.5558C6.80167 20.6459 6.92718 20.191 6.89266 19.7554C6.86216 19.3704 6.74235 18.998 6.54293 18.6684C6.31727 18.2955 5.95092 18.002 5.21822 17.4148L3.99656 16.4359C1.46176 14.4047 0.194363 13.3891 0.0357886 12.4646C-0.101588 11.6636 0.161541 10.8459 0.738885 10.2795C1.40532 9.62565 3.02184 9.55626 6.25487 9.41747L7.81305 9.35058C8.74759 9.31046 9.21485 9.2904 9.61449 9.12264C9.96767 8.97438 10.2813 8.74426 10.5301 8.45089C10.8116 8.11894 10.9749 7.67639 11.3015 6.7913L11.846 5.31555Z" fill="#5A5A5A"/>
</svg>