<svg xmlns="http://www.w3.org/2000/svg" width="30" height="30" viewBox="0 0 30 30" fill="none">
  <path d="M12.9546 11.9318C12.9546 12.8732 12.1914 13.6364 11.25 13.6364C10.3086 13.6364 9.54547 12.8732 9.54547 11.9318C9.54547 10.9904 10.3086 10.2273 11.25 10.2273C12.1914 10.2273 12.9546 10.9904 12.9546 11.9318Z" fill="#5A5A5A"/>
  <path d="M21.1364 11.9318C21.1364 12.8732 20.3732 13.6364 19.4318 13.6364C18.4904 13.6364 17.7273 12.8732 17.7273 11.9318C17.7273 10.9904 18.4904 10.2273 19.4318 10.2273C20.3732 10.2273 21.1364 10.9904 21.1364 11.9318Z" fill="#5A5A5A"/>
  <path fill-rule="evenodd" clip-rule="evenodd" d="M15 2.88492C8.27217 2.88492 2.85054 8.32699 2.85054 15C2.85054 21.673 8.27217 27.1151 15 27.1151C21.7278 27.1151 27.1495 21.673 27.1495 15C27.1495 8.32699 21.7278 2.88492 15 2.88492ZM0 15C0 6.69776 6.7336 0 15 0C23.2664 0 30 6.69776 30 15C30 23.3022 23.2664 30 15 30C6.7336 30 0 23.3022 0 15ZM20.2276 17.0298C20.9694 17.2961 21.3576 18.1206 21.0944 18.8714L19.7512 18.3893C21.0944 18.8714 21.0941 18.8723 21.0938 18.8731L21.0932 18.8749L21.0919 18.8787L21.0889 18.8869L21.0817 18.9066C21.0763 18.921 21.0698 18.9381 21.062 18.9577C21.0464 18.9969 21.0259 19.0463 20.9997 19.1043C20.9475 19.2201 20.8726 19.3717 20.7702 19.547C20.5661 19.8964 20.2481 20.3481 19.777 20.7962C18.8086 21.7173 17.2748 22.5434 15 22.5434C12.7252 22.5434 11.1914 21.7174 10.223 20.7962C9.75191 20.3482 9.43388 19.8965 9.22977 19.5471C9.12742 19.3718 9.05249 19.2202 9.0003 19.1044C8.97416 19.0464 8.95358 18.997 8.93801 18.9578C8.93022 18.9382 8.92367 18.9211 8.91829 18.9067L8.91108 18.887L8.90811 18.8788L8.90678 18.875L8.90616 18.8733C8.90586 18.8724 8.90556 18.8716 10.2488 18.3894L8.90556 18.8716C8.64244 18.1207 9.03055 17.2962 9.77242 17.0299C10.5068 16.7663 11.3127 17.1486 11.584 17.8847C11.5856 17.8886 11.5889 17.8963 11.5939 17.9074C11.6085 17.9399 11.6375 18.0001 11.6836 18.079C11.7765 18.238 11.9336 18.4642 12.1752 18.694C12.6321 19.1287 13.4738 19.6584 15 19.6584C16.5261 19.6584 17.3679 19.1287 17.8248 18.694C18.0664 18.4642 18.2235 18.2379 18.3163 18.079C18.3625 18 18.3915 17.9398 18.4061 17.9073C18.4111 17.8962 18.4144 17.8885 18.416 17.8846C18.6873 17.1485 19.4931 16.7662 20.2276 17.0298ZM11.591 17.9039C11.591 17.904 11.591 17.904 11.591 17.9041C11.5914 17.9051 11.5918 17.9062 11.5921 17.9072L10.3183 18.3645C11.5921 17.9072 11.5918 17.9064 11.5916 17.9056L11.591 17.9041L11.591 17.904L11.591 17.9039Z" fill="#5A5A5A"/>
</svg>