<svg xmlns="http://www.w3.org/2000/svg" width="25" height="30" viewBox="0 0 25 30" fill="none">
  <path fill-rule="evenodd" clip-rule="evenodd" d="M12.8141 2.64578C12.3283 2.64578 11.9345 3.04069 11.9345 3.52783V4.00306H13.6938V3.52783C13.6938 3.04069 13.3 2.64578 12.8141 2.64578ZM16.3324 4.00306V3.52783C16.3324 1.57946 14.7572 0 12.8141 0C10.871 0 9.29586 1.57946 9.29586 3.52783V4.00306H6.81138C3.3257 4.00306 0.5 6.83644 0.5 10.3316V23.6715C0.5 27.1666 3.32571 30 6.81138 30H18.1886C21.6743 30 24.5 27.1666 24.5 23.6715V10.3316C24.5 6.83643 21.6743 4.00306 18.1886 4.00306H16.3324ZM6.81138 6.64884C4.78297 6.64884 3.13862 8.29766 3.13862 10.3316V23.6715C3.13862 25.7054 4.78297 27.3542 6.81138 27.3542H18.1886C20.217 27.3542 21.8614 25.7054 21.8614 23.6715V10.3316C21.8614 8.29765 20.217 6.64884 18.1886 6.64884H6.81138ZM6.15448 11.3305C6.15448 10.5999 6.74516 10.0076 7.47379 10.0076H17.5262C18.2548 10.0076 18.8455 10.5999 18.8455 11.3305C18.8455 12.0611 18.2548 12.6534 17.5262 12.6534H7.47379C6.74516 12.6534 6.15448 12.0611 6.15448 11.3305ZM6.15448 16.0008C6.15448 15.2702 6.74516 14.6779 7.47379 14.6779H17.5262C18.2548 14.6779 18.8455 15.2702 18.8455 16.0008C18.8455 16.7314 18.2548 17.3237 17.5262 17.3237H7.47379C6.74516 17.3237 6.15448 16.7314 6.15448 16.0008ZM8.03931 20.671C8.03931 19.9404 8.62999 19.3481 9.35862 19.3481H15.6414C16.37 19.3481 16.9607 19.9404 16.9607 20.671C16.9607 21.4016 16.37 21.9939 15.6414 21.9939H9.35862C8.62999 21.9939 8.03931 21.4016 8.03931 20.671Z" fill="#5A5A5A"/>
</svg>