<svg xmlns="http://www.w3.org/2000/svg" width="39" height="26" viewBox="0 0 39 26" fill="none">
  <path fill-rule="evenodd" clip-rule="evenodd" d="M25.5667 2.50026C19.7359 2.50026 15.0372 7.21672 15.0372 13C15.0372 18.7833 19.7359 23.4997 25.5667 23.4997C31.3975 23.4997 36.0962 18.7833 36.0962 13C36.0962 7.21672 31.3975 2.50026 25.5667 2.50026ZM12.5667 13C12.5667 5.80473 18.4025 0 25.5667 0C32.7309 0 38.5667 5.80473 38.5667 13C38.5667 20.1953 32.7309 26 25.5667 26C18.4025 26 12.5667 20.1953 12.5667 13Z" fill="#5A5A5A"/>
  <circle cx="19.5" cy="13.0001" r="11.2667" fill="#32363C"/>
  <path fill-rule="evenodd" clip-rule="evenodd" d="M19.5 2.50026C13.6692 2.50026 8.97047 7.21672 8.97047 13C8.97047 18.7833 13.6692 23.4997 19.5 23.4997C25.3308 23.4997 30.0295 18.7833 30.0295 13C30.0295 7.21672 25.3308 2.50026 19.5 2.50026ZM6.5 13C6.5 5.80473 12.3358 0 19.5 0C26.6642 0 32.5 5.80473 32.5 13C32.5 20.1953 26.6642 26 19.5 26C12.3358 26 6.5 20.1953 6.5 13Z" fill="#5A5A5A"/>
  <circle cx="13.4334" cy="13.0001" r="11.2667" fill="#32363C"/>
  <path d="M13.7247 6.07812C14.0406 6.07812 14.2966 6.33418 14.2966 6.65005V7.59966C14.2966 7.91552 14.0406 8.17158 13.7247 8.17158C13.4088 8.17158 13.1528 7.91552 13.1528 7.59966V6.65005C13.1528 6.33418 13.4088 6.07812 13.7247 6.07812ZM13.5808 17.8259C13.8967 17.8259 14.1527 18.082 14.1527 18.3979V19.1964C14.1527 19.5123 13.8967 19.7683 13.5808 19.7683C13.265 19.7683 13.0089 19.5123 13.0089 19.1964V18.3979C13.0089 18.082 13.265 17.8259 13.5808 17.8259ZM14.6347 15.4231C14.6347 15.1594 14.594 14.9411 14.5124 14.7685C14.4309 14.5958 14.299 14.4448 14.1168 14.3153C13.9345 14.1858 13.6923 14.0563 13.3902 13.9268C12.7523 13.6678 12.1888 13.4016 11.6996 13.1283C11.2152 12.8549 10.8339 12.5144 10.5557 12.1067C10.2824 11.699 10.1457 11.1691 10.1457 10.5168C10.1457 9.92212 10.292 9.40416 10.5845 8.96292C10.8819 8.52169 11.2895 8.18117 11.8075 7.94137C12.3303 7.69678 12.9322 7.57448 13.6132 7.57448C14.1312 7.57448 14.6036 7.65122 15.0304 7.80469C15.4573 7.95816 15.8265 8.18117 16.1383 8.47373C16.45 8.76149 16.6898 9.1164 16.8577 9.53844C16.8877 9.61292 16.9149 9.68922 16.9396 9.76736C17.1407 10.4059 16.5668 10.9629 15.8973 10.9629H15.3977C15.0042 10.9629 14.7093 10.6356 14.5988 10.2578C14.546 10.0612 14.4693 9.90054 14.3686 9.77585C14.2678 9.65115 14.1503 9.56003 14.0161 9.50247C13.8818 9.44013 13.7355 9.40895 13.5772 9.40895C13.3374 9.40895 13.1432 9.46171 12.9945 9.56722C12.8458 9.66794 12.7379 9.80222 12.6708 9.97008C12.6036 10.1379 12.5701 10.325 12.5701 10.5312C12.5701 10.747 12.606 10.9365 12.678 11.0995C12.7547 11.2578 12.8842 11.4065 13.0664 11.5456C13.2487 11.6799 13.4981 11.8189 13.8146 11.9628C14.4381 12.2266 14.9944 12.5 15.4836 12.7829C15.9728 13.0659 16.3565 13.4136 16.6347 13.8261C16.9176 14.2337 17.0591 14.7613 17.0591 15.4088C17.0591 16.0322 16.9128 16.5646 16.6203 17.0058C16.3277 17.4423 15.9201 17.7756 15.3973 18.0058C14.8745 18.236 14.2702 18.3511 13.5844 18.3511C13.124 18.3511 12.666 18.2912 12.2104 18.1713C11.7595 18.0514 11.3471 17.8571 10.973 17.5885C10.6037 17.3152 10.3087 16.9531 10.0881 16.5022C10.0177 16.3583 9.95849 16.2038 9.91054 16.0389C9.72369 15.396 10.2999 14.8404 10.9694 14.8404H11.3638C11.8155 14.8404 12.1454 15.2206 12.2967 15.6462C12.3734 15.862 12.4765 16.0346 12.606 16.1641C12.7403 16.2888 12.8914 16.3799 13.0593 16.4375C13.2271 16.4903 13.4022 16.5166 13.5844 16.5166C13.829 16.5166 14.028 16.4687 14.1815 16.3728C14.335 16.272 14.4477 16.1401 14.5196 15.9771C14.5964 15.8092 14.6347 15.6246 14.6347 15.4231Z" fill="#5A5A5A"/>
  <path fill-rule="evenodd" clip-rule="evenodd" d="M13.4333 2.50026C7.60256 2.50026 2.90382 7.21672 2.90382 13C2.90382 18.7833 7.60256 23.4997 13.4333 23.4997C19.2641 23.4997 23.9629 18.7833 23.9629 13C23.9629 7.21672 19.2641 2.50026 13.4333 2.50026ZM0.43335 13C0.43335 5.80473 6.26913 0 13.4333 0C20.5976 0 26.4333 5.80473 26.4333 13C26.4333 20.1953 20.5976 26 13.4333 26C6.26913 26 0.43335 20.1953 0.43335 13Z" fill="#5A5A5A"/>
</svg>