<svg xmlns="http://www.w3.org/2000/svg" width="232" height="33" viewBox="0 0 232 33" fill="none">
  <path d="M186.737 14.1559C186.737 12.2042 187.127 10.505 187.908 9.05843C188.688 7.58888 189.768 6.45227 191.145 5.64861C192.546 4.84495 194.142 4.44312 195.933 4.44312C198.252 4.44312 200.158 5.00568 201.65 6.13081C203.166 7.25593 204.165 8.81733 204.647 10.815H201.271C200.95 9.66692 200.318 8.75993 199.377 8.09404C198.459 7.42815 197.31 7.0952 195.933 7.0952C194.142 7.0952 192.695 7.71517 191.593 8.9551C190.491 10.1721 189.94 11.9057 189.94 14.1559C189.94 16.4292 190.491 18.1857 191.593 19.4257C192.695 20.6656 194.142 21.2856 195.933 21.2856C197.31 21.2856 198.459 20.9641 199.377 20.3212C200.295 19.6782 200.927 18.7598 201.271 17.5658H204.647C204.142 19.4946 203.131 21.0445 201.616 22.2155C200.1 23.3636 198.206 23.9377 195.933 23.9377C194.142 23.9377 192.546 23.5358 191.145 22.7322C189.768 21.9285 188.688 20.7919 187.908 19.3223C187.127 17.8528 186.737 16.1307 186.737 14.1559Z" fill="white"/>
  <path d="M163.116 14.1215C163.116 12.1927 163.507 10.505 164.288 9.05843C165.068 7.58888 166.136 6.45227 167.491 5.64861C168.868 4.84495 170.395 4.44312 172.072 4.44312C173.725 4.44312 175.16 4.79902 176.377 5.51084C177.594 6.22265 178.501 7.11816 179.098 8.19736V4.7531H182.267V23.6277H179.098V20.1145C178.478 21.2167 177.548 22.1352 176.308 22.8699C175.091 23.5818 173.667 23.9377 172.037 23.9377C170.361 23.9377 168.845 23.5243 167.491 22.6977C166.136 21.8711 165.068 20.7115 164.288 19.219C163.507 17.7265 163.116 16.0273 163.116 14.1215ZM179.098 14.1559C179.098 12.7323 178.811 11.4924 178.237 10.4361C177.663 9.3799 176.882 8.57624 175.895 8.02515C174.93 7.45111 173.863 7.16409 172.692 7.16409C171.52 7.16409 170.453 7.43963 169.488 7.99071C168.524 8.54179 167.755 9.34545 167.181 10.4017C166.607 11.4579 166.32 12.6979 166.32 14.1215C166.32 15.5681 166.607 16.831 167.181 17.9102C167.755 18.9664 168.524 19.7816 169.488 20.3556C170.453 20.9067 171.52 21.1822 172.692 21.1822C173.863 21.1822 174.93 20.9067 175.895 20.3556C176.882 19.7816 177.663 18.9664 178.237 17.9102C178.811 16.831 179.098 15.5796 179.098 14.1559Z" fill="white"/>
  <path d="M154.229 7.81851C154.78 6.73931 155.561 5.90121 156.571 5.3042C157.604 4.7072 158.856 4.40869 160.325 4.40869V7.6463H159.498C155.985 7.6463 154.229 9.55213 154.229 13.3638V23.6277H151.094V4.75312H154.229V7.81851Z" fill="white"/>
  <path d="M142.027 7.33629V18.4613C142.027 19.3797 142.222 20.0341 142.613 20.4245C143.003 20.7919 143.68 20.9756 144.645 20.9756H146.953V23.6277H144.128C142.383 23.6277 141.074 23.2258 140.202 22.4222C139.329 21.6185 138.893 20.2982 138.893 18.4613V7.33629H136.448V4.75309H138.893V0H142.027V4.75309H146.953V7.33629H142.027Z" fill="white"/>
  <path d="M125.182 4.75317L113.816 32.514H110.578L114.298 23.4211L106.686 4.75317H110.165L116.089 20.0457L121.944 4.75317H125.182Z" fill="white"/>
  <path d="M95.7932 4.40869C97.2627 4.40869 98.5715 4.71868 99.7196 5.33864C100.868 5.93565 101.775 6.84264 102.441 8.05961C103.106 9.27659 103.439 10.7576 103.439 12.5027V23.6277H100.34V12.9505C100.34 11.0676 99.8689 9.63249 98.9274 8.64514C98.009 7.63482 96.7576 7.12966 95.1732 7.12966C93.5429 7.12966 92.2456 7.65778 91.2812 8.71402C90.3168 9.7473 89.8346 11.2513 89.8346 13.226V23.6277H86.7348V12.9505C86.7348 11.0676 86.264 9.63249 85.3226 8.64514C84.4041 7.63482 83.1527 7.12966 81.5684 7.12966C79.9381 7.12966 78.6407 7.65778 77.6763 8.71402C76.7119 9.7473 76.2297 11.2513 76.2297 13.226V23.6277H73.0955V4.75312H76.2297V7.47409C76.8497 6.48673 77.6763 5.72899 78.7096 5.20087C79.7659 4.67275 80.9254 4.40869 82.1883 4.40869C83.7727 4.40869 85.1733 4.7646 86.3903 5.47641C87.6073 6.18823 88.5143 7.23299 89.1113 8.61069C89.6394 7.27891 90.512 6.24563 91.7289 5.51086C92.9459 4.77608 94.3007 4.40869 95.7932 4.40869Z" fill="white"/>
  <path d="M59.087 13.4671C59.087 14.0641 59.0525 14.6955 58.9836 15.3614H43.8977C44.0126 17.2213 44.644 18.6794 45.7921 19.7357C46.9631 20.7689 48.3753 21.2856 50.0285 21.2856C51.3833 21.2856 52.5084 20.9756 53.4039 20.3556C54.3224 19.7127 54.9653 18.8631 55.3327 17.8069H58.7081C58.2029 19.6208 57.1926 21.1019 55.6771 22.25C54.1617 23.3751 52.2788 23.9377 50.0285 23.9377C48.2375 23.9377 46.6302 23.5358 45.2066 22.7322C43.8059 21.9285 42.7037 20.7919 41.9001 19.3223C41.0964 17.8298 40.6946 16.1077 40.6946 14.1559C40.6946 12.2042 41.0849 10.4935 41.8656 9.02399C42.6463 7.55444 43.737 6.42931 45.1377 5.64861C46.5613 4.84495 48.1916 4.44312 50.0285 4.44312C51.8196 4.44312 53.4039 4.83347 54.7816 5.61417C56.1593 6.39487 57.2156 7.47407 57.9504 8.85178C58.7081 10.2065 59.087 11.745 59.087 13.4671ZM55.8493 12.8127C55.8493 11.6187 55.5853 10.5969 55.0572 9.74728C54.529 8.87474 53.8058 8.22033 52.8873 7.78405C51.9918 7.32482 50.9929 7.0952 49.8908 7.0952C48.3064 7.0952 46.9517 7.60036 45.8265 8.61068C44.7244 9.62099 44.0929 11.0217 43.9322 12.8127H55.8493Z" fill="white"/>
  <path d="M30.2081 23.9377C28.7615 23.9377 27.4641 23.6966 26.3161 23.2144C25.168 22.7092 24.261 22.0203 23.5951 21.1478C22.9292 20.2523 22.5618 19.2305 22.4929 18.0824H25.7305C25.8224 19.0238 26.2586 19.7931 27.0393 20.3901C27.843 20.9871 28.8878 21.2856 30.1736 21.2856C31.3676 21.2856 32.3091 21.0215 32.9979 20.4934C33.6868 19.9653 34.0312 19.2994 34.0312 18.4957C34.0312 17.6691 33.6638 17.0606 32.929 16.6703C32.1943 16.2569 31.0577 15.8551 29.5192 15.4648C28.1186 15.0974 26.9705 14.73 26.075 14.3626C25.2024 13.9723 24.4447 13.4097 23.8017 12.6749C23.1818 11.9172 22.8718 10.9298 22.8718 9.71284C22.8718 8.74845 23.1588 7.86442 23.7329 7.06076C24.3069 6.2571 25.122 5.62565 26.1783 5.16641C27.2345 4.68421 28.44 4.44312 29.7948 4.44312C31.8843 4.44312 33.572 4.97124 34.8578 6.02748C36.1437 7.08372 36.8325 8.53031 36.9244 10.3673H33.7901C33.7212 9.3799 33.3194 8.58771 32.5846 7.99071C31.8728 7.3937 30.9084 7.0952 29.6914 7.0952C28.5663 7.0952 27.6708 7.3363 27.0049 7.8185C26.339 8.30069 26.0061 8.93214 26.0061 9.71284C26.0061 10.3328 26.2012 10.8494 26.5916 11.2628C27.0049 11.6531 27.5101 11.9746 28.1071 12.2272C28.727 12.4568 29.5766 12.7208 30.6558 13.0193C32.0106 13.3867 33.1127 13.7541 33.9623 14.1215C34.8119 14.4659 35.5352 14.994 36.1322 15.7059C36.7522 16.4177 37.0736 17.3476 37.0966 18.4957C37.0966 19.529 36.8096 20.459 36.2355 21.2856C35.6615 22.1122 34.8464 22.7666 33.7901 23.2488C32.7568 23.708 31.5628 23.9377 30.2081 23.9377Z" fill="white"/>
  <path d="M17.8896 4.75317V23.6277H14.7553V20.8379C14.1583 21.8023 13.3202 22.56 12.241 23.1111C11.1848 23.6392 10.0137 23.9033 8.72787 23.9033C7.25832 23.9033 5.93801 23.6048 4.76696 23.0078C3.59591 22.3878 2.66596 21.4693 1.97711 20.2524C1.31122 19.0354 0.978271 17.5544 0.978271 15.8093V4.75317H4.07811V15.396C4.07811 17.2559 4.54883 18.691 5.49026 19.7013C6.43169 20.6886 7.71755 21.1823 9.34784 21.1823C11.024 21.1823 12.3443 20.6657 13.3087 19.6324C14.2731 18.5991 14.7553 17.0951 14.7553 15.1204V4.75317H17.8896Z" fill="white"/>
  <path fill-rule="evenodd" clip-rule="evenodd" d="M213.516 14.927C212.413 14.3697 212.413 12.7944 213.516 12.2371L229.814 4.00375C230.816 3.49742 232 4.22583 232 5.34873L232 21.8154C232 22.9383 230.816 23.6667 229.814 23.1604L213.516 14.927ZM216.264 13.5821L229.56 20.299L229.56 6.86507L216.264 13.5821Z" fill="white"/>
  <path d="M209.253 4.971C209.253 4.17841 209.896 3.53589 210.689 3.53589C211.481 3.53589 212.124 4.17841 212.124 4.971V22.1923C212.124 22.9849 211.481 23.6274 210.689 23.6274C209.896 23.6274 209.253 22.9849 209.253 22.1923V4.971Z" fill="white"/>
</svg>