<svg xmlns="http://www.w3.org/2000/svg" width="31" height="30" viewBox="0 0 31 30" fill="none">
  <circle cx="15.5" cy="15" r="10" fill="white"/>
  <path fill-rule="evenodd" clip-rule="evenodd" d="M15.5 30C23.7842 30 30.5 23.2842 30.5 15C30.5 6.7158 23.7842 0 15.5 0C7.2158 0 0.5 6.7158 0.5 15C0.5 23.2842 7.2158 30 15.5 30ZM22.0931 9.5832C22.2089 8.2692 20.8211 8.8104 20.8211 8.8104C19.7966 9.2346 18.74 9.6654 17.672 10.101C14.36 11.4519 10.9388 12.8475 8.0243 14.2212C6.4439 14.8008 7.3691 15.3804 7.3691 15.3804L9.8744 16.1535C11.0309 16.5015 11.6474 16.1148 11.6474 16.1148L17.0438 12.4434C18.971 11.1294 18.5084 12.2115 18.0458 12.6753L13.9988 16.5399C13.382 17.0811 13.6904 17.5449 13.9601 17.7768C14.7251 18.4515 16.6061 19.686 17.4272 20.2248C17.6408 20.3649 17.7827 20.4582 17.8148 20.4822C18.0074 20.6367 19.0481 21.3324 19.742 21.1779C20.4359 21.0231 20.513 20.1342 20.513 20.1342L21.4379 14.0664C21.5765 13.0131 21.7358 12.0006 21.863 11.1918C21.983 10.428 22.0745 9.8463 22.0931 9.5832Z" fill="#4EA8EB"/>
</svg>