<svg xmlns="http://www.w3.org/2000/svg" width="35" height="38" viewBox="0 0 35 38" fill="none">
  <circle cx="17.2648" cy="21.8575" r="16.1425" fill="#22CC00"/>
  <g filter="url(#filter0_i_139_642)">
    <circle cx="17.2646" cy="21.8577" r="13.4064" fill="#0A8F00" fill-opacity="0.72"/>
  </g>
  <g filter="url(#filter1_d_139_642)">
    <path d="M26.476 19.6291V20.9076H22.9138V19.6291H26.476ZM23.6623 18.1594H25.5035V23.612C25.5035 23.7686 25.5217 23.8907 25.5582 23.9781C25.5946 24.0619 25.6565 24.122 25.7439 24.1584C25.835 24.1912 25.9552 24.2075 26.1045 24.2075C26.2101 24.2075 26.2976 24.2057 26.3668 24.2021C26.436 24.1948 26.5015 24.1857 26.5635 24.1748V25.4915C26.4068 25.5425 26.2429 25.5807 26.0717 25.6062C25.9005 25.6353 25.7184 25.6499 25.5254 25.6499C25.132 25.6499 24.7951 25.588 24.5146 25.4642C24.2378 25.3403 24.0266 25.1455 23.8809 24.8796C23.7352 24.6137 23.6623 24.2676 23.6623 23.8415V18.1594Z" fill="#6DFF79"/>
    <path d="M15.8056 20.8804V25.5408H13.9644V19.6293H15.6908L15.8056 20.8804ZM15.5816 22.3829L15.1609 22.3938C15.1609 21.9786 15.21 21.5962 15.3084 21.2465C15.4067 20.8968 15.5524 20.5927 15.7455 20.3341C15.9385 20.0755 16.1753 19.8751 16.4557 19.7331C16.7398 19.591 17.0676 19.52 17.4392 19.52C17.6978 19.52 17.9327 19.5601 18.144 19.6402C18.3552 19.7167 18.5373 19.8387 18.6903 20.0063C18.8433 20.1702 18.9598 20.3851 19.04 20.651C19.1237 20.9132 19.1656 21.2283 19.1656 21.5962V25.5408H17.3244V21.8311C17.3244 21.5798 17.2953 21.3904 17.237 21.2629C17.1824 21.1354 17.1022 21.0498 16.9966 21.0061C16.891 20.9624 16.7617 20.9405 16.6087 20.9405C16.4484 20.9405 16.3046 20.977 16.1771 21.0498C16.0496 21.1227 15.9403 21.2246 15.8493 21.3558C15.7619 21.4832 15.6945 21.6344 15.6471 21.8092C15.6034 21.9841 15.5816 22.1753 15.5816 22.3829ZM18.958 22.3829L18.4444 22.3938C18.4444 21.9786 18.49 21.5962 18.581 21.2465C18.6757 20.8968 18.816 20.5927 19.0017 20.3341C19.1911 20.0755 19.4261 19.8751 19.7065 19.7331C19.987 19.591 20.313 19.52 20.6845 19.52C20.954 19.52 21.2017 19.5601 21.4275 19.6402C21.6534 19.7203 21.8482 19.8497 22.0121 20.0281C22.176 20.2066 22.3035 20.4434 22.3946 20.7384C22.4856 21.0298 22.5312 21.3904 22.5312 21.8202V25.5408H20.6845V21.8202C20.6845 21.5761 20.6554 21.3922 20.5971 21.2683C20.5424 21.1409 20.4623 21.0553 20.3567 21.0116C20.2511 20.9642 20.1254 20.9405 19.9797 20.9405C19.8049 20.9405 19.6537 20.977 19.5262 21.0498C19.3987 21.1227 19.2913 21.2246 19.2039 21.3558C19.1201 21.4832 19.0582 21.6344 19.0181 21.8092C18.978 21.9841 18.958 22.1753 18.958 22.3829Z" fill="#6DFF79"/>
    <path d="M11.309 24.1037V19.629H13.1556V25.5406H11.4292L11.309 24.1037ZM11.4838 22.9017L11.9646 22.8908C11.9646 23.2878 11.9172 23.6556 11.8225 23.9944C11.7278 24.3295 11.5876 24.6209 11.4019 24.8685C11.2197 25.1162 10.9939 25.3093 10.7244 25.4477C10.4585 25.5824 10.1507 25.6498 9.80104 25.6498C9.50965 25.6498 9.24194 25.6098 8.9979 25.5296C8.7575 25.4459 8.54989 25.3166 8.37506 25.1417C8.20023 24.9632 8.06364 24.7356 7.96529 24.4588C7.87059 24.1783 7.82324 23.8432 7.82324 23.4535V19.629H9.66445V23.4644C9.66445 23.5955 9.68084 23.7085 9.71362 23.8032C9.7464 23.8979 9.79375 23.978 9.85567 24.0436C9.91759 24.1055 9.99408 24.1528 10.0851 24.1856C10.1798 24.2147 10.2873 24.2293 10.4075 24.2293C10.6843 24.2293 10.901 24.171 11.0576 24.0545C11.2143 23.9379 11.3235 23.7795 11.3855 23.5792C11.451 23.3788 11.4838 23.153 11.4838 22.9017Z" fill="#6DFF79"/>
  </g>
  <g style="mix-blend-mode:overlay" filter="url(#filter2_f_139_642)">
    <circle cx="17.5382" cy="17.2065" r="8.75523" fill="white"/>
  </g>
  <defs>
    <filter id="filter0_i_139_642" x="3.85815" y="8.45129" width="26.813" height="27.1549" filterUnits="userSpaceOnUse" color-interpolation-filters="sRGB">
      <feFlood flood-opacity="0" result="BackgroundImageFix"/>
      <feBlend mode="normal" in="SourceGraphic" in2="BackgroundImageFix" result="shape"/>
      <feColorMatrix in="SourceAlpha" type="matrix" values="0 0 0 0 0 0 0 0 0 0 0 0 0 0 0 0 0 0 127 0" result="hardAlpha"/>
      <feMorphology radius="0.342001" operator="erode" in="SourceAlpha" result="effect1_innerShadow_139_642"/>
      <feOffset dy="0.342001"/>
      <feComposite in2="hardAlpha" operator="arithmetic" k2="-1" k3="1"/>
      <feColorMatrix type="matrix" values="0 0 0 0 0 0 0 0 0 0 0 0 0 0 0 0 0 0 0.25 0"/>
      <feBlend mode="normal" in2="shape" result="effect1_innerShadow_139_642"/>
    </filter>
    <filter id="filter1_d_139_642" x="7.82324" y="18.1594" width="18.7402" height="7.82678" filterUnits="userSpaceOnUse" color-interpolation-filters="sRGB">
      <feFlood flood-opacity="0" result="BackgroundImageFix"/>
      <feColorMatrix in="SourceAlpha" type="matrix" values="0 0 0 0 0 0 0 0 0 0 0 0 0 0 0 0 0 0 127 0" result="hardAlpha"/>
      <feOffset dy="0.336301"/>
      <feComposite in2="hardAlpha" operator="out"/>
      <feColorMatrix type="matrix" values="0 0 0 0 0 0 0 0 0 0 0 0 0 0 0 0 0 0 0.45 0"/>
      <feBlend mode="normal" in2="BackgroundImageFix" result="effect1_dropShadow_139_642"/>
      <feBlend mode="normal" in="SourceGraphic" in2="effect1_dropShadow_139_642" result="shape"/>
    </filter>
    <filter id="filter2_f_139_642" x="0.574931" y="0.243266" width="33.9266" height="33.9266" filterUnits="userSpaceOnUse" color-interpolation-filters="sRGB">
      <feFlood flood-opacity="0" result="BackgroundImageFix"/>
      <feBlend mode="normal" in="SourceGraphic" in2="BackgroundImageFix" result="shape"/>
      <feGaussianBlur stdDeviation="4.10401" result="effect1_foregroundBlur_139_642"/>
    </filter>
  </defs>
</svg>