<svg xmlns="http://www.w3.org/2000/svg" width="27" height="27" viewBox="0 0 27 27" fill="none">
  <path d="M13.5 0C10.83 0 8.21987 0.791761 5.99981 2.27516C3.77974 3.75856 2.04942 5.86697 1.02763 8.33377C0.00584934 10.8006 -0.261496 13.515 0.259405 16.1337C0.780305 18.7525 2.06606 21.1579 3.95406 23.0459C5.84207 24.9339 8.24754 26.2197 10.8663 26.7406C13.485 27.2615 16.1994 26.9942 18.6662 25.9724C21.133 24.9506 23.2414 23.2203 24.7248 21.0002C26.2082 18.7801 27 16.17 27 13.5C26.9962 9.92074 25.5727 6.48915 23.0418 3.95823C20.5108 1.42731 17.0793 0.00377976 13.5 0ZM12.9808 6.23077C13.2889 6.23077 13.59 6.32212 13.8462 6.49329C14.1023 6.66445 14.302 6.90773 14.4199 7.19236C14.5378 7.47699 14.5686 7.79019 14.5085 8.09235C14.4484 8.39451 14.3001 8.67207 14.0822 8.88991C13.8644 9.10776 13.5868 9.25612 13.2847 9.31622C12.9825 9.37633 12.6693 9.34548 12.3847 9.22758C12.1 9.10968 11.8568 8.91003 11.6856 8.65387C11.5144 8.39771 11.4231 8.09654 11.4231 7.78846C11.4231 7.37533 11.5872 6.97913 11.8793 6.68701C12.1714 6.39488 12.5676 6.23077 12.9808 6.23077ZM14.5385 20.7692C13.9876 20.7692 13.4594 20.5504 13.0699 20.1609C12.6804 19.7714 12.4615 19.2431 12.4615 18.6923V13.5C12.1861 13.5 11.922 13.3906 11.7272 13.1958C11.5325 13.0011 11.4231 12.737 11.4231 12.4615C11.4231 12.1861 11.5325 11.922 11.7272 11.7272C11.922 11.5325 12.1861 11.4231 12.4615 11.4231C13.0124 11.4231 13.5406 11.6419 13.9301 12.0314C14.3196 12.4209 14.5385 12.9492 14.5385 13.5V18.6923C14.8139 18.6923 15.078 18.8017 15.2728 18.9965C15.4675 19.1912 15.5769 19.4553 15.5769 19.7308C15.5769 20.0062 15.4675 20.2703 15.2728 20.4651C15.078 20.6598 14.8139 20.7692 14.5385 20.7692Z" fill="white" fill-opacity="0.2"/>
</svg>